<mxfile host="app.diagrams.net" modified="2023-06-06T12:39:29.849Z" agent="Mozilla/5.0 (Macintosh; Intel Mac OS X 10_15_7) AppleWebKit/537.36 (KHTML, like Gecko) Chrome/114.0.0.0 Safari/537.36" etag="dngBjNgFpnhnysp89uQs" version="21.3.7" type="device">
  <diagram name="Page-1" id="Roytx7hNW1_9ieOrUTqo">
    <mxGraphModel dx="1220" dy="1033" grid="1" gridSize="10" guides="1" tooltips="1" connect="1" arrows="1" fold="1" page="1" pageScale="1" pageWidth="827" pageHeight="1169" math="0" shadow="0">
      <root>
        <mxCell id="0" />
        <mxCell id="1" parent="0" />
        <mxCell id="KJc5ITyXX2hheheox1cP-2" value="" style="rounded=0;whiteSpace=wrap;html=1;fillColor=#dae8fc;strokeColor=#6c8ebf;" parent="1" vertex="1">
          <mxGeometry x="340" y="40" width="420" height="490" as="geometry" />
        </mxCell>
        <mxCell id="KJc5ITyXX2hheheox1cP-3" value="Miranum Platform" style="text;html=1;align=center;verticalAlign=middle;resizable=0;points=[];autosize=1;strokeColor=none;fillColor=none;" parent="1" vertex="1">
          <mxGeometry x="640" y="40" width="120" height="30" as="geometry" />
        </mxCell>
        <mxCell id="KJc5ITyXX2hheheox1cP-6" value="" style="group" parent="1" vertex="1" connectable="0">
          <mxGeometry x="420" y="420" width="560" height="380" as="geometry" />
        </mxCell>
        <mxCell id="KJc5ITyXX2hheheox1cP-5" value="" style="outlineConnect=0;dashed=0;verticalLabelPosition=bottom;verticalAlign=top;align=center;html=1;shape=mxgraph.aws3.ec2_compute_container;fillColor=#dae8fc;strokeColor=#6c8ebf;" parent="KJc5ITyXX2hheheox1cP-6" vertex="1">
          <mxGeometry width="110" height="77.25" as="geometry" />
        </mxCell>
        <mxCell id="KJc5ITyXX2hheheox1cP-4" value="" style="shape=image;verticalLabelPosition=bottom;labelBackgroundColor=default;verticalAlign=top;aspect=fixed;imageAspect=0;image=https://www.marcus-povey.co.uk/wp-content/avatar.png;" parent="KJc5ITyXX2hheheox1cP-6" vertex="1">
          <mxGeometry x="25" y="8.629999999999995" width="60" height="60" as="geometry" />
        </mxCell>
        <mxCell id="KJc5ITyXX2hheheox1cP-7" value="" style="group" parent="1" vertex="1" connectable="0">
          <mxGeometry x="420" y="190" width="110" height="77.25" as="geometry" />
        </mxCell>
        <mxCell id="KJc5ITyXX2hheheox1cP-8" value="" style="outlineConnect=0;dashed=0;verticalLabelPosition=bottom;verticalAlign=top;align=center;html=1;shape=mxgraph.aws3.ec2_compute_container;fillColor=#dae8fc;strokeColor=#6c8ebf;" parent="KJc5ITyXX2hheheox1cP-7" vertex="1">
          <mxGeometry width="110" height="77.25" as="geometry" />
        </mxCell>
        <mxCell id="KJc5ITyXX2hheheox1cP-10" value="" style="shape=image;verticalLabelPosition=bottom;labelBackgroundColor=default;verticalAlign=top;aspect=fixed;imageAspect=0;image=data:image/jpeg,/9j/4AAQSkZJRgABAQAAAQABAAD/2wCEAAkGBxASEBITEhIVExUWDRYYFRcVFxcXHRcZFxcXFxgYGxcYHSgiGholHRoaITEhJikrLi4uFx8zODMtNygtLi0BCgoKDg0OGxAQGy8mICUvLS8yMi0tLTItLTItLS0vLTItLy0tLS01LS0vLS0tLS8tLS0vLy0tLS0tLS0vLS0vLv/AABEIAOEA4AMBIgACEQEDEQH/xAAcAAACAgMBAQAAAAAAAAAAAAAAAgYHAQQFAwj/xABIEAACAQICBgUIBQsCBgMAAAABAgADEQQGBRIhMUFRImFxgZEHE0JSYqGxwSMycoLRFDM0U3OSssLS4vCi4RYXQ2N08URko//EABsBAAEFAQEAAAAAAAAAAAAAAAUAAgMEBgEH/8QANhEAAQMCAwQKAgEEAgMAAAAAAQACAwQRBSExEkFRYRMiMnGBkaGxwdHh8CMGFDNS4vFCkqL/2gAMAwEAAhEDEQA/ALxhCESSIQhEkiEIRJIhMSH6fz3h6N0o/TPzB6AP2vS7vESOSVkYu82U9PSzVDtmJtz7d50HipjODpPNWCoX1qysw9FLOb8tmwHtIlXaZzRi8TcPUKqfQTor2WG1u8mci8GS4nujb5/X5Wlpv6aGtQ/wb9n68VYeP8pA2ihQ7GqH+Rf6pxcTnnHPudafUiqPe1zIwIwg99ZO/Vx8MvZGI8Lo4uzGPHP3uuo+YcadpxFbuqMB4AgTyOlMQd9Woe12/GaQjCVzK86k+atCJg0AHgPpbqaTxA3Vag7Hb8ZtU9P4wf8AyKve7H3EzliMI3pXjRx8ymOiYdQPIKSYbOmNTe6v1Oq/FbGdrA5/2gVqNuZpn+VvxkDEcSVlfUM0cfHP3VKXDaSTWMeGXtZW1o/MmFrWC1QpPov0T2bdh7jO1KNUzr6KzBiMPYI5ZR6DdJfDh3Wl+HGN0rfEfR+0GqMAGsLvA/Y+vFW3CRjQ2b6FWy1Pon6z0T97h3+Mk0MQzMlbtMNx+6oBPTywO2ZG2P7oswhCSqFEIQiSRCEIkkQhCJJEIQiSROVpvTNDCU9eq20/VUbWY8gPnuE52a800sGlh06zDop6vtPyHVvPiRUWkdIVa7tUquWZt9+A4ADgByEpVVYIuq3N3sjuFYK6qtLLkz1d3cBz8l28x5wxGLJW/m6d9iKd49s+kerds3cZHoojCApHuedpxuVt4oI4WBkYsBuH7rzWRGEURhIynphGEURhGphTCMIojCNKYU4jCKIwjCmlMI4iCOI1RpxHEQRxGFMKZZ3NB5irYcgE69PirHd9k+j8OqcMRxOxyvidtMNioJomSt2Hi4Vs6L0pSrprI3ap2Fe0fPdOhKewWLqUnD02KsOI+BHEdUsXL2nUxC2NlqAbV59a9XVw980tDiTZ+o/J3oe7ny8uWTr8MdB1482+o7+XPz59yEIQohSIQhEkiEIRJIkYzjmZcHTstjWYdBfVG7XYcuXM9hnRzBpenhKDVX2nci8Wc7h8yeABlH6Sx9SvVerUbWZmvf4ADgANgEpVlT0Q2W9o+iPYLhX907pZewP/AKPDuG/y4pMTiXqOzuxZma5J3kmeYmBMiASbreAWyCYRhFEYThXCsiMJi0yI0ppTqI4Q8pJ/J7+erfsP50k62y1DR9Kza2reH5QesxQU8vR7F8hvtr4FVAEPKZ1TLduZwc7fow/bp8HnZaHYYXbWnL8qKDFxNI2PYtc27X4UCEYRRGEGlFUwjiKIwjVGU4jiII4jCmFMI4iCOI1MKcT1oVWRgykqwNwRwM8hGEZe2iicLqyMvaaXEJY2FRR0hzHrDq+E7kqTBYl6Tq6GzKbj8D1SzNFaQWvSDrsO5h6rDeJqsNr+nbsP7Q9Rx7+PmsniVB0DttnZPofrh5LfhCEKoWiI7AAk7ABtMeQrylab8zh/MoenVBvbgg+t+9u7NaRyyCNhedysUlM+pmbCzU+g3nwCg+d9PnFYgkH6JLrTHV6/a1r9lpHYEwmce8vcXHUr0+GFkLBHGLAZD99+ayJmYEyJGpEwkoyrlo1bVaoIpg9Ebtf+34zOU8tectVrC1P0V9f+z4yfIoAAAsANgHCXqam2uu/TggGKYn0d4ou1vPDkOft36RrM2WRUHnKChXA2oNgcDkODfGQfD4R3bURGZuQBJ7xwlvxKdFVLFVALG7EAC55m28yaakbI7aBtxQ+lxZ8Mew4bVtM/Q8uH1pGsn6FrUGd6oChqVgL3N9ZTtts4c5KpiZliONsbdlqHVE755DI+1+SJysy4CpWoBKdtYVQ202uACPHbOrMxPaHtLToUyKQxvD26hVZi8BVpG1RGXt3HsI2GdrLOXzVIqVARTB2Ddr/29cm1akrqVZQyneCLg9xjqoAAAsALADhKTaBjXXJuOH2icuMPdHstbZ3H633UdzDl1XHnKKgOBtUbAwHIcG+MhpWWsJH8x6B87epSHT9JR6fWPb+MjraPa67BnvHH99e/XuH4hs2ilOW48OR5c92/LSFiOIpEYQKUcKYRxEEcRqYU4jCKIwkajKcTr5c0ocPVFz0G2OOrg3aPxnJEYR0Uronh7NQoJY2yNLHaFW4DyjSOZQ0l5ykabHpU93WvDw3eEkc3EEzZoxI3f+28Fip4TDIYzu/R5rF5RObtLHE4uo97rratPqRdi+O1vvGWrnvSPmMDVINi482PvggntC6x7pSZMH4lJmGeP0tX/TFL1X1B39Ue5+B4FYhCEFrWLIjAxRMiNK4rIyrmJa6im9lqhewOBxA9bmO8dUjlQaJw71K1NaZs7OApHA79bu390t1BYAXvs3nj17IXpZXPb1t2/isfitLHBICz/wAs7cPwU0Sq4UFmIAAuSTYAdZhVqKqlmICgEkngBvMrrMmn3xDaq3WkD0V5+03X1cI+ecRDmq1FROqnWGQGp/d6kOk85UkJWinnDzbYvcN5904dbNuLbcyp9lV/mvOAJ7YWg9RgiKWYnYFFye6CX1Mrzr5LSR4fTQt7IPN2fnfL2XXp5pxgP5y/UVT5CdnR+c9oFamAOaf0n8ZDitth2bZkRjaqVujvPNdloKd4sWDwFvaytvA1RXQPSOut7XHPkRwPVNr8lf1TOZ5Nf0R//Kb+CnJZNDA3pI2vO8LE1h6Cd8QzANlx/wAlf1TOfpbHLh01qm8/VXix/Drkole+Ur89S/Y/zGRVh6GEvbr9qTDwKmcRv0zPkFFsbiWq1GqMACxubCwiCIJ60KTOwVVLMTYAC5PdMsSXniStjYMGWQHoAgRxFIjCRrhTiMIojCRqMr0EYRRGEaVGV0tCY7zNdH4Xs32TsP490syVIJYuW8V5zDJfevQP3d3utD+BVGboT3j2Px6oDjMGTZR3H4+fRQjyt43p0KPJDUI53OqPDVbxleyR+ULFec0hV5LZB90AH/UTI5O1TtqVx5rW4VD0NHG3kD/7Z/KIQhK6IL2wlA1KiUxvZgovzYgfOSn/AICrfraXi/8ATI9oP9Io/t6f8YlvmXKaBkgO0gmK10tM5ojtnfcovlnLLYeqajsjfRkLq32E227QOGzvkogIQhHG1jdlqzc9RJO/bk1USz5pEqiUVP1uk3YDsHeQT90SECdbNtcvjKp5MFH3QF+N5zsHhXqutNFJZmsoHEwNUOMkp8lrKGJsFM0aZXPjn+8gnwWFeq606almY2AHH8B1y28q5bp4RLmz1WHSbkPVXq6+PgBnK2WqeETg1Vl6b8vZW+5fjbbwAkULUdF0XXf2vb8rKYvi5qSYoT1N5/2/48Bv1PAQrOeUxWDVqC2q73Qf9TrHt/Htkb0RkvFVuk/0S8de9z2Jv8bS2YSSXD4pJNs+I4qCDGqmGHohY20JzIHDh3X7lyMuaGXCUjTV9e9QsSQBvVRuHDZOvCEtsYGNDWjIIXLK6R5e83JRI5mbLf5WVYVNRlSwBFwdt+0SRwjZYmyN2HjJOgnfC8SRmxCqbG5axVNwvmy2s1lZOkpJ3beHfaTnLOgFwyXNmqEdJvVHqr1dfGSCEqwYfFC8vGfC+5XqrFZqiMRmwG+2/wDHLQnNRLNeWhVBq0h9JvZR6fWPa+MghEuiRPNOWxVBq0h9JvdR6fWPa+PbKeI4dt/yxDPeOPMc/f3uYZimzaGY5bjw5HlwO7Q5aQQRxFEYTNFaIr0EYRRGEYVGU4kryPiLNUp81DDu2H4+6RQTsZYrauKp9ZKnvvb32lrDpejqWHnbzyVKuZt07xy9s1BMxVQ+LxDDc2JqHxdrTnTLtck8yT4zEIONyStUwbLQOACIQhGpy3tB/pFH9vT/AIxLfMpvR1YU6tOody1FY25BgT8JYAzpg+VX91P65epJWNB2jZAMYpppnM6NpNrqSCE5Oh9O0cSzLT1rqut0gBcXtssT1eM60vtcHC4Kzckb43bLxYqrczLbF1wf1zHxNx8Zz6NVlIZSVIIIINiCNxB5yS59werXSqBsdBrfaXYfdq+BkYEBztLZHDmVtKR4lp2OHAegsfUFWzk7NS4pBTqELWA7BUA4j2uY7x1S2VR5N9FedxJqsOjSAPa5+r4WJ7hLXh6ike+IF/8A2sPjNPDBUlsXAEjcCdw8M+V0Th6ezHQwq2c6zkdGmu89Z9UdfheLmrTq4SjrCxqNcU1PP1j1D5gcZUleu9R2d2LMxuSd5Mhra3oeozte35U+FYT/AHP8suTPU/hSDSWc8XVJ1W8yvJNh73337LTiVcRUc3dmJ5sSfjPARhM/LM+Q9c3WtigjhFo2gdw+dfVbeFx9an+bqOn2WZfgZJdEZ3roQKwFVeexWHYRsPf4yIiOIoqiSI3Ybe3kop6WKcWkaD7+evqrm0bpKlXTXpNrDiOKnkRwM3pTehtKVMNVD0z9peBHI/5sls6OxyVqSVUOxh4HiD1g7Jo6KtFQ2xycNfsLHYlhxpXbTc2HTlyPxx77rbkMzTma2tRott3O44c1U8+Z4fCYVFBBB3EWPfKk0tgjRrPTPBth5rvU+FpBis8kUYDMr5E8O7v4qTB6eKWUl+ZbYgbjz8MsuJWvGEURhMotUV6CMIojCNKjKcTc0U2rXpHlVQ+DCaYnohsQeuJjtlwdwIPkoni4soORbZ1wm9p2jqYquvq4hx4MwmjDJFjZaJrrgFEIQnE5ZEyJgRgJwri6eWdI/k+IRz9Umz/ZbYfDYe6WtITlLLN7Vq69HeiH0vaYcuQ4/GbwrRsc1ue9ZLGJopJgGZkCxO79Gd/LcvHFaJp4pfN1LgX1gVtcEcRcHrHfNb/l3g/XrfvJ/ROzo784OwzsS6II35uaCghr6mA7ETyBquToDQlPCUzTpliGqFiWtcmwHADgBOtCeGKqaqO3qox8BeTta1gsNAqEkj5XlzjdxVR510ka+Lfb0UbUXsXYT3tc+E4gmGJJJO++2ZEyUrzI4uO9elRxCFgjbo0AeScRhFEYSErpTCOIgjiNUacSZ+TzSBDvQJ2Ea6/aFgw7xt+7IYJ18q1SuMokfrLfvAr85PRyGOdrhxt55KjXxCWne08CfEZj2VtSP6dy0mJqBy5QhAuwA3sSQffJBCayWJkrdl4uFh4Znwu24zYqIf8AAyfrm/dH4yIYqj5uq6Xvq1GW/OxIlvSp9L/pFb9u/wDEYAxalhhY0xttc8+HO60OFVU07ndI69rcPha4jCKIwgAouU4jqIgm3o6nrVqY51VHiwE41u04N4lRONhdR7PWH83j644Gprj74DH3kzgyeeVrCWr0ao3PRKntQ3+DDwkDmgqWbErhzRbDJhNSRvH+oHiMj6hEIQkCvLIjU2III3ggjjtG3cYomROJpVoZb08uJXbZaqjpLzHrL1dXCduU1hq7IyujFWU3BHAyy8uadXErtstVR0l5+0vV1cIUpqnb6rtfdZPEsN6D+SLs8OH44cNOCkmjvzg7DOxIZpfMCYMA2DuQdVL+88hOL/zKr/qKf+r8ZaNXFF1XHNChhVVU/wAkbcuZAv5qzZ44inrI6+shHiLTi5S09+WUS7KEZamqVBO6wIO3nt8DJBLbHte0OGhQuaJ8MhjeLEKgWUgkHYQbHtgJ3s8aMNHFubdGofOL976w7mv3WnBEyUsZjcWncvSI5mzMEjdHAHz+tE4jCKIwkJTimEcRBHEao04nYypS1sZQH/cv+6C3ynHEmnk60edZ65GwDUTrJsWPcLDvMno4jJO1o438BmqNfMIqd7jwI8TkFPYQka09mgYar5vzeudQEnX1bE32W1Twse+auadkLdt5sPH4WIgp5J3bEYufAe6ksqfS36RW/bv/ABGSQZ6/+v8A/r/ZIriq3nHepa2tUZrb7XJNrwBitXDOxojdex4EbuYC0OF0c1OXGQWvbeDp3EpRGEURhAJRYpxOrlqnrYqkOTa37oJ+U5QknyRQvUd+C07d7H8AfGWKCPpKmNvMHyz+FTrJNiB7uR9cvlbXlF0b57BMQLtSYVB2AWf/AEknulNET6JrUldWVhdWUgg8QRYiUJpzR7YfEVaJ9FzY8xvB7wQe+aPEo+sH+Cd/TFVtRvgOoO0O46+R91owhCDFqVkTMwJmcXEwnthsQyMroSrKbgjhPERhOJjhfJe+LxT1XZ3YszHaT/mwdU8xFE3NGaOq4iqtKkusSewAcSTwAnLFxy1KjcWxtucgPAABSTyb416eKKBSy1EIawvbVuVc9Q2j78ticXLugqWEphVGsxA13O9jyvwUcB852po6OF0UWy4/jkvPcWq4qqoL4hlYC/G2+3oOQC4eZ9CLi6OrsDrtptyPI+yePceEqPF4V6TslRSrKbEHh/t1y+Jx9OaBoYpfpBZgOi67GHV1jqMhraLpuszte/5VnCsW/tf4pM2eo/HEeI3qnBGEkulMk4uncoBVX2Nh70PyvOLV0XiFNmo1FPWjD5QBJTysNnNPktbHUwyi8bwfH419FrCOJt4bRGJfYlGo33Gt42tJHonItViDXYU19UEMx+Q9/ZOR0s0hs1p+FDPWQQi8jgPfyGfouJoTRNTE1QijZ6TcFHM9fIcZa+AwiUaaU0FlVbD5k9ZO3vi6O0fSoIEpqFX3k8yeJm5NFRUYp2m+bjr9D9zWPxHEXVbrAWaNB8n4G5eNaoFUtYmyk2AuTYX2DiZUmOxTVar1G3s5PZyHcLDulwyIZry1r3rUV6e90Hpe0o9bmOPbvgxWnkljBZuztx7u7hv3Z5GbB6mKGQh+RdYA8OR7+P8A2oQIwiiMJlFqSvQRhFEYRpUZTiWBlTCamGBO9yW7ty+4X75CNG4U1aqUx6TW7BvJ7heWdTphQABYAAAcgN0OYFBd7pTuyHedfT3QLGZrMbEN+f7+7l6SvvKlobWRcUg2pZKn2Sei3cTbvHKWDPDE0UqIyOAyspVgeIIsRNDNEJWFpQqhq3Us7ZRu15jf+Oa+d4Tq5n0M2FxD0zcrvRjxQ/VPbwPWDOVM45pabHVenRyNkaHsNwcwsiZmBMxicmEYRRGE4U0rInvhMS9J1dGKspuCOB/zhPARhG3tomOAIsVcWU8ypi0sbLVUdNeB9perq4eBMklAYTFPTdalNirKbgjgf84S3Mr5lp4untslVRd14W9db+jz5eBJ2irek6j+17/lYjF8I/tyZoexvH+v/Hnu0O5SIm0Lyts6Zt85ehh26G53Hp9Q9j49m/haIzLisNYI919RukvcDu7iIn4lG1+za44j9/d11yLAJ3w7ZIDjuPDmdx5W7yFc8JxstaUbFUBVZQp12Uhb22W27Z2ZfY8PaHN0KCzROikMb9QbFEISJZtzLUwzrTRFuaQa7XNrlhYDZyjJpmxN236J9NTSVD+jj1+v3vUsvMym8RpfEVKi1HqsWU3U3tqn2QNglhZYzCuJXUey1QNo4OPWX5iVKbEY5n7FrcL7/wA8lfrMIlp4xJfa423fY57vVSKRDNOZtS9Gienudx6PNV9rr4du5M2ZmCXo0T09zuPR5qp9bmeHbuhAlPEcS2bxRHPefgc+J3bs8xbwzC72mmHcPk/A36nLVxGEQRxM2tAV6CMIom9obR7V6q0xu3seSjefl2kRMY57g1upUMjwwFztApNkjAWVqzeldV7Adp8RbuMlk8qNJUVVUWAUADkBPWbilpxTxNjG71O9YupnM8pkO/Tu3fvFEIQlhQKOZxy+MZQIAAqrc0yePNCeR9xsZS1akyMVYFWViGB2EEbCD1z6MkHz5lP8oU16C/SgdJR/1AOI5v8AEbOUH1tLt9duvutJgWLCA/28x6p0PAnjyPoczlcqqRMw1bb4CA1tymEYRRGERTSsiMIojCNKamE9FJG7ZsI7iLEeE8xGEamFMIwiiMI0phVreTv9CH7ZvlJRKTwOmsRSXUpVXRbk2G653zaGZsb+vfx/2hiHE4442tLTkAN32svV4HLNO+QPbmSd+/wVxSufKR+k0/8Axh/G84gzLjf17+P+008ZjatZg1Vy7atrnltNveZDWYgyeLYaDu1spcPwmSlm6RzgRYjK/wAheYnpScqQVJBG4g2I7xPMRxAt7IyRdMI4iCOI1NKYRxFEdRIzkoyvSkhYgAEkmwA4k7hLIy9ooYenY7Xba5+CjqH4znZW0D5oCpVH0hHRU+gD/MfdJRNPhdAYh0sg6x0HAfZ9Fl8UrhIeijPVGp4n6Hv3IhCEMoMiEIRJIhCESSgudslivrVqAAq72XYA+/aPb9x7dsq50IJBBBBsQRYgjeCDuM+i5Gcz5To4xda2pVA2OB9bkHHEde8e6Dqqi2+tHrw4rS4TjvQgQ1Gbdx3jv4j1Hda1NCMJvaZ0LXwtTVqoRyberdanj8eYE0RArgWmxWxa9r2hzTcHQhZEYRRGEYV1MIwiiMI1MKYRhFEYRpTCnEYRRGEYU0phHEQRxGqNOI4iCOIwphTCOIgm9o3RlWu+rTXW5ngvWTwnGtLjZouVE9waC45ALXpqSQACSTYAbSTyAk9yzlsUrVaovU3qu8J1nm3wm5oLLtLDjW+vUttYjd1KOHbv+E7s0VBhYiIklzduG4fn071l8QxXpbxw9neePdy9TyRCEIZQREIQiSRCEIkkQhCJJEIQiSWrjMFSqoUqorqd4YX7+o9cgWnvJ5vfCtf/ALbnb2K3HsbxljwkM1PHKOsPHertHiE9IbxOy3g5g+H1Yr5/xeBq0X1KqMh5MpHhzHWJ4iX5jMJTqrq1EWovJgD8dxkV0n5PsNUuaTPSPL66+BOt74Kmwx47Bv7/AEtPTf1HA/KYFp4jMfY7rFVeIwkpxuQMan1NSqPYax7w9vcTOJidDYmmPpKFVeso1vG1oPfBIztNPkjEdXBL/jeD4i/lr6LTEYTFuqZEr3UzgRqnEYRRHAMabJlidFkRxNrC6JxNQdCjUbrCNbxtadvBZKxbjpatIe01z4Lf32kjKaV/ZafL5VSWqhi7bwPEX8tfRR0TYweEqVG1aaMzclF//Qk90dkfDpY1GeqeX1V8Bt98kmFw1OmLU0VByUAfCX4cIkd/kNh5n690HqMdhblENo+Q+/CwUP0Pkk7GxDfcQ+4tw7vGTDC4anSUJTUIo4Af5czYhDUFLFAOoPHf5rO1NZNUm8hy4bh4feaIQhLCqohCESSIQhEkiEIRJIhCESSIQhEkiEIRJIhCESSIQhOhcKjmatzfYlW4/wCue/4whAeJ6rZYF/jTYD647vjLRyxuX7EITmF9pNxz/GpFCEIdOqx4RCEJxdRCEIkkQhCJJEIQiSRCEIkl/9k=;" parent="KJc5ITyXX2hheheox1cP-7" vertex="1">
          <mxGeometry x="25.129999999999995" y="8.629999999999995" width="59.73" height="60" as="geometry" />
        </mxCell>
        <mxCell id="KJc5ITyXX2hheheox1cP-11" value="" style="group" parent="1" vertex="1" connectable="0">
          <mxGeometry x="420" y="50" width="110" height="77.25" as="geometry" />
        </mxCell>
        <mxCell id="KJc5ITyXX2hheheox1cP-12" value="" style="outlineConnect=0;dashed=0;verticalLabelPosition=bottom;verticalAlign=top;align=center;html=1;shape=mxgraph.aws3.ec2_compute_container;fillColor=#dae8fc;strokeColor=#6c8ebf;" parent="KJc5ITyXX2hheheox1cP-11" vertex="1">
          <mxGeometry width="110" height="77.25" as="geometry" />
        </mxCell>
        <mxCell id="KJc5ITyXX2hheheox1cP-15" value="" style="shape=image;verticalLabelPosition=bottom;labelBackgroundColor=default;verticalAlign=top;aspect=fixed;imageAspect=0;image=https://cdn-icons-png.flaticon.com/512/3789/3789946.png;" parent="KJc5ITyXX2hheheox1cP-11" vertex="1">
          <mxGeometry x="24" y="8.629999999999995" width="60" height="60" as="geometry" />
        </mxCell>
        <mxCell id="KJc5ITyXX2hheheox1cP-20" value="" style="group" parent="1" vertex="1" connectable="0">
          <mxGeometry x="620" y="131.38" width="110" height="77.25" as="geometry" />
        </mxCell>
        <mxCell id="KJc5ITyXX2hheheox1cP-19" value="" style="outlineConnect=0;dashed=0;verticalLabelPosition=bottom;verticalAlign=top;align=center;html=1;shape=mxgraph.aws3.ec2_compute_container;fillColor=#dae8fc;strokeColor=#6c8ebf;" parent="KJc5ITyXX2hheheox1cP-20" vertex="1">
          <mxGeometry width="110" height="77.25" as="geometry" />
        </mxCell>
        <mxCell id="KJc5ITyXX2hheheox1cP-18" value="" style="shape=datastore;whiteSpace=wrap;html=1;" parent="KJc5ITyXX2hheheox1cP-20" vertex="1">
          <mxGeometry x="30" y="13.629999999999995" width="50" height="50" as="geometry" />
        </mxCell>
        <mxCell id="KJc5ITyXX2hheheox1cP-22" value="" style="group" parent="1" vertex="1" connectable="0">
          <mxGeometry x="80" y="40" width="190" height="120" as="geometry" />
        </mxCell>
        <mxCell id="KJc5ITyXX2hheheox1cP-16" value="" style="verticalLabelPosition=bottom;html=1;verticalAlign=top;align=center;strokeColor=none;fillColor=#808080;shape=mxgraph.azure.laptop;pointerEvents=1;" parent="KJc5ITyXX2hheheox1cP-22" vertex="1">
          <mxGeometry width="190" height="120" as="geometry" />
        </mxCell>
        <mxCell id="KJc5ITyXX2hheheox1cP-17" value="" style="shape=image;verticalLabelPosition=bottom;labelBackgroundColor=default;verticalAlign=top;aspect=fixed;imageAspect=0;image=https://cdn-icons-png.flaticon.com/512/3789/3789946.png;" parent="KJc5ITyXX2hheheox1cP-22" vertex="1">
          <mxGeometry x="60" y="15" width="70" height="70" as="geometry" />
        </mxCell>
        <mxCell id="KJc5ITyXX2hheheox1cP-23" value="" style="endArrow=classic;html=1;rounded=0;" parent="1" source="KJc5ITyXX2hheheox1cP-12" target="KJc5ITyXX2hheheox1cP-17" edge="1">
          <mxGeometry width="50" height="50" relative="1" as="geometry">
            <mxPoint x="390" y="590" as="sourcePoint" />
            <mxPoint x="440" y="540" as="targetPoint" />
          </mxGeometry>
        </mxCell>
        <mxCell id="KJc5ITyXX2hheheox1cP-24" value="" style="endArrow=classic;startArrow=classic;html=1;rounded=0;entryX=0;entryY=0.5;entryDx=0;entryDy=0;entryPerimeter=0;" parent="1" target="KJc5ITyXX2hheheox1cP-8" edge="1">
          <mxGeometry width="50" height="50" relative="1" as="geometry">
            <mxPoint x="260" y="170" as="sourcePoint" />
            <mxPoint x="440" y="540" as="targetPoint" />
          </mxGeometry>
        </mxCell>
        <mxCell id="KJc5ITyXX2hheheox1cP-25" value="" style="group" parent="1" vertex="1" connectable="0">
          <mxGeometry x="420" y="301.37" width="110" height="98.63" as="geometry" />
        </mxCell>
        <mxCell id="KJc5ITyXX2hheheox1cP-26" value="" style="outlineConnect=0;dashed=0;verticalLabelPosition=bottom;verticalAlign=top;align=center;html=1;shape=mxgraph.aws3.ec2_compute_container;fillColor=#dae8fc;strokeColor=#6c8ebf;" parent="KJc5ITyXX2hheheox1cP-25" vertex="1">
          <mxGeometry width="110" height="77.25" as="geometry" />
        </mxCell>
        <mxCell id="w4RJhSF3c1nbkr7LLLl5-2" value="" style="shape=image;verticalLabelPosition=bottom;labelBackgroundColor=default;verticalAlign=top;aspect=fixed;imageAspect=0;image=https://jsonexamples.files.wordpress.com/2017/10/obtain-the-json.png;" vertex="1" parent="KJc5ITyXX2hheheox1cP-25">
          <mxGeometry x="30" y="13.620000000000005" width="50" height="50" as="geometry" />
        </mxCell>
        <mxCell id="KJc5ITyXX2hheheox1cP-31" value="" style="endArrow=classic;startArrow=classic;html=1;rounded=0;exitX=0.995;exitY=0.742;exitDx=0;exitDy=0;exitPerimeter=0;entryX=0;entryY=0.5;entryDx=0;entryDy=0;entryPerimeter=0;" parent="1" target="KJc5ITyXX2hheheox1cP-26" edge="1">
          <mxGeometry width="50" height="50" relative="1" as="geometry">
            <mxPoint x="230" y="167.25" as="sourcePoint" />
            <mxPoint x="381" y="267" as="targetPoint" />
          </mxGeometry>
        </mxCell>
        <mxCell id="KJc5ITyXX2hheheox1cP-32" value="" style="endArrow=classic;startArrow=classic;html=1;rounded=0;entryX=0;entryY=0.5;entryDx=0;entryDy=0;entryPerimeter=0;" parent="1" target="KJc5ITyXX2hheheox1cP-5" edge="1">
          <mxGeometry width="50" height="50" relative="1" as="geometry">
            <mxPoint x="200" y="170" as="sourcePoint" />
            <mxPoint x="420" y="420" as="targetPoint" />
          </mxGeometry>
        </mxCell>
        <mxCell id="KJc5ITyXX2hheheox1cP-33" value="" style="endArrow=classic;startArrow=classic;html=1;rounded=0;exitX=1;exitY=0.5;exitDx=0;exitDy=0;exitPerimeter=0;" parent="1" source="KJc5ITyXX2hheheox1cP-5" target="KJc5ITyXX2hheheox1cP-19" edge="1">
          <mxGeometry width="50" height="50" relative="1" as="geometry">
            <mxPoint x="390" y="590" as="sourcePoint" />
            <mxPoint x="440" y="540" as="targetPoint" />
          </mxGeometry>
        </mxCell>
        <mxCell id="KJc5ITyXX2hheheox1cP-34" value="" style="endArrow=classic;startArrow=classic;html=1;rounded=0;exitX=1;exitY=0.5;exitDx=0;exitDy=0;exitPerimeter=0;entryX=0;entryY=1;entryDx=0;entryDy=0;entryPerimeter=0;" parent="1" source="KJc5ITyXX2hheheox1cP-26" target="KJc5ITyXX2hheheox1cP-19" edge="1">
          <mxGeometry width="50" height="50" relative="1" as="geometry">
            <mxPoint x="540" y="429" as="sourcePoint" />
            <mxPoint x="662" y="219" as="targetPoint" />
          </mxGeometry>
        </mxCell>
        <mxCell id="KJc5ITyXX2hheheox1cP-35" value="" style="endArrow=classic;startArrow=classic;html=1;rounded=0;exitX=1;exitY=0.5;exitDx=0;exitDy=0;exitPerimeter=0;" parent="1" source="KJc5ITyXX2hheheox1cP-8" target="KJc5ITyXX2hheheox1cP-19" edge="1">
          <mxGeometry width="50" height="50" relative="1" as="geometry">
            <mxPoint x="540" y="339" as="sourcePoint" />
            <mxPoint x="630" y="219" as="targetPoint" />
          </mxGeometry>
        </mxCell>
        <mxCell id="KJc5ITyXX2hheheox1cP-36" value="Engine-Tasklist-Service" style="text;html=1;align=center;verticalAlign=middle;resizable=0;points=[];autosize=1;strokeColor=none;fillColor=none;" parent="1" vertex="1">
          <mxGeometry x="400" y="267.25" width="150" height="30" as="geometry" />
        </mxCell>
        <mxCell id="KJc5ITyXX2hheheox1cP-37" value="Schema-Registry-Service" style="text;html=1;align=center;verticalAlign=middle;resizable=0;points=[];autosize=1;strokeColor=none;fillColor=none;" parent="1" vertex="1">
          <mxGeometry x="395" y="380" width="160" height="30" as="geometry" />
        </mxCell>
        <mxCell id="KJc5ITyXX2hheheox1cP-38" value="SSO-Server" style="text;html=1;align=center;verticalAlign=middle;resizable=0;points=[];autosize=1;strokeColor=none;fillColor=none;" parent="1" vertex="1">
          <mxGeometry x="430" y="497.25" width="90" height="30" as="geometry" />
        </mxCell>
        <mxCell id="KJc5ITyXX2hheheox1cP-39" value="Tasklist-Webapp" style="text;html=1;align=center;verticalAlign=middle;resizable=0;points=[];autosize=1;strokeColor=none;fillColor=none;" parent="1" vertex="1">
          <mxGeometry x="420" y="127.25" width="110" height="30" as="geometry" />
        </mxCell>
      </root>
    </mxGraphModel>
  </diagram>
</mxfile>
